<?xml version="1.0" encoding="utf-8"?>
<!-- Generator: Adobe Illustrator 21.0.0, SVG Export Plug-In . SVG Version: 6.00 Build 0)  -->
<svg version="1.1" id="Layer_1" xmlns="http://www.w3.org/2000/svg" xmlns:xlink="http://www.w3.org/1999/xlink" x="0px" y="0px"
	 viewBox="0 0 1440 900" style="enable-background:new 0 0 1440 900;" xml:space="preserve">
<style type="text/css">
	.st0{fill:#EBEBEB;}
	.st1{fill:url(#XMLID_21_);}
	.st2{fill:#E4E4E4;}
	.st3{fill:url(#XMLID_22_);}
	.st4{fill:#F2F2F2;}
	.st5{fill:url(#XMLID_23_);}
	.st6{fill:#EAEBEC;}
	.st7{fill:url(#XMLID_24_);}
	.st8{fill:#F0F0F0;}
	.st9{fill:url(#XMLID_25_);}
	.st10{fill:#F4F5F7;}
	.st11{fill:url(#XMLID_26_);}
	.st12{fill:url(#XMLID_27_);}
	.st13{fill:url(#XMLID_28_);}
	.st14{fill:#FDFDFD;}
</style>
<rect id="XMLID_17_" x="-23.5" y="550.5" transform="matrix(0.7071 -0.7071 0.7071 0.7071 -496.5921 387.1206)" class="st0" width="485.1" height="485.1"/>
<linearGradient id="XMLID_21_" gradientUnits="userSpaceOnUse" x1="148.3258" y1="278.9153" x2="148.3258" y2="-206.1597" gradientTransform="matrix(0.7071 -0.7071 -0.7071 -0.7071 139.8406 923.6052)">
	<stop  offset="0" style="stop-color:#EBEBEB"/>
	<stop  offset="1" style="stop-color:#EBEBEB;stop-opacity:0"/>
</linearGradient>
<polygon id="XMLID_16_" class="st1" points="-124,793 219,450 562,793 219,1136 "/>
<rect id="XMLID_15_" x="662.5" y="550.5" transform="matrix(0.7071 -0.7071 0.7071 0.7071 -295.6674 872.1958)" class="st2" width="485.1" height="485.1"/>
<linearGradient id="XMLID_22_" gradientUnits="userSpaceOnUse" x1="737.4198" y1="-129.3225" x2="944.6028" y2="224.9415" gradientTransform="matrix(0.7071 -0.7071 -0.7071 -0.7071 340.7654 1408.6803)">
	<stop  offset="3.802670e-02" style="stop-color:#EBEBEB"/>
	<stop  offset="1" style="stop-color:#EBEBEB;stop-opacity:0"/>
</linearGradient>
<polygon id="XMLID_14_" class="st3" points="562,793 905,450 1248,793 905,1136 "/>
<rect id="XMLID_13_" x="1348.5" y="550.5" transform="matrix(0.7071 -0.7071 0.7071 0.7071 -94.7427 1357.2711)" class="st4" width="485.1" height="485.1"/>
<linearGradient id="XMLID_23_" gradientUnits="userSpaceOnUse" x1="1520.3258" y1="278.9153" x2="1520.3258" y2="-206.1597" gradientTransform="matrix(0.7071 -0.7071 -0.7071 -0.7071 541.6902 1893.7556)">
	<stop  offset="0" style="stop-color:#EBEBEB"/>
	<stop  offset="1" style="stop-color:#EBEBEB;stop-opacity:0"/>
</linearGradient>
<polygon id="XMLID_12_" class="st5" points="1248,793 1591,450 1934,793 1591,1136 "/>
<rect id="XMLID_11_" x="-23.5" y="-135.5" transform="matrix(0.7071 -0.7071 0.7071 0.7071 -11.5169 186.1958)" class="st6" width="485.1" height="485.1"/>
<linearGradient id="XMLID_24_" gradientUnits="userSpaceOnUse" x1="148.3258" y1="964.9153" x2="148.3258" y2="479.8402" gradientTransform="matrix(0.7071 -0.7071 -0.7071 -0.7071 624.9158 722.6804)">
	<stop  offset="0" style="stop-color:#EBEBEB"/>
	<stop  offset="1" style="stop-color:#EBEBEB;stop-opacity:0"/>
</linearGradient>
<polygon id="XMLID_10_" class="st7" points="-124,107 219,-236 562,107 219,450 "/>
<rect id="XMLID_9_" x="662.5" y="-135.5" transform="matrix(0.7071 -0.7071 0.7071 0.7071 189.4079 671.2711)" class="st8" width="485.1" height="485.1"/>
<linearGradient id="XMLID_25_" gradientUnits="userSpaceOnUse" x1="949.2553" y1="882.3423" x2="723.6884" y2="568.3873" gradientTransform="matrix(0.7071 -0.7071 -0.7071 -0.7071 825.8406 1207.7556)">
	<stop  offset="0" style="stop-color:#EBEBEB"/>
	<stop  offset="1" style="stop-color:#EBEBEB;stop-opacity:0"/>
</linearGradient>
<polygon id="XMLID_8_" class="st9" points="562,107 905,-236 1248,107 905,450 "/>
<rect id="XMLID_7_" x="1348.5" y="-135.5" transform="matrix(0.7071 -0.7071 0.7071 0.7071 390.3326 1156.3463)" class="st10" width="485.1" height="485.1"/>
<rect id="XMLID_6_" x="-366.5" y="207.5" transform="matrix(0.7071 -0.7071 0.7071 0.7071 -354.5168 44.1206)" class="st0" width="485.1" height="485.1"/>
<linearGradient id="XMLID_26_" gradientUnits="userSpaceOnUse" x1="-194.6742" y1="621.9153" x2="-194.6742" y2="136.8403" gradientTransform="matrix(0.7071 -0.7071 -0.7071 -0.7071 281.9159 580.6051)">
	<stop  offset="0" style="stop-color:#D3D3D3"/>
	<stop  offset="1" style="stop-color:#EBEBEB;stop-opacity:0"/>
</linearGradient>
<polygon id="XMLID_5_" class="st11" points="-467,450 -124,107 219,450 -124,793 "/>
<rect id="XMLID_4_" x="319.5" y="207.5" transform="matrix(0.7071 -0.7071 0.7071 0.7071 -153.5921 529.1958)" class="st0" width="485.1" height="485.1"/>
<linearGradient id="XMLID_27_" gradientUnits="userSpaceOnUse" x1="733.8633" y1="621.9153" x2="248.7883" y2="136.8403" gradientTransform="matrix(0.7071 -0.7071 -0.7071 -0.7071 482.8406 1065.6803)">
	<stop  offset="0" style="stop-color:#F3F3F3"/>
	<stop  offset="1" style="stop-color:#EBEBEB;stop-opacity:0"/>
</linearGradient>
<polygon id="XMLID_3_" class="st12" points="219,450 562,107 905,450 562,793 "/>
<rect id="XMLID_2_" x="1005.5" y="207.5" transform="matrix(0.7071 -0.7071 0.7071 0.7071 47.3326 1014.2711)" class="st0" width="485.1" height="485.1"/>
<linearGradient id="XMLID_28_" gradientUnits="userSpaceOnUse" x1="1013.8188" y1="791.7767" x2="1308.3287" y2="48.9607" gradientTransform="matrix(0.7071 -0.7071 -0.7071 -0.7071 683.7653 1550.7556)">
	<stop  offset="0" style="stop-color:#EFEFEF"/>
	<stop  offset="1" style="stop-color:#EBEBEB;stop-opacity:0"/>
</linearGradient>
<polygon id="XMLID_1_" class="st13" points="905,450 1248,107 1591,450 1248,793 "/>
<rect id="XMLID_20_" x="-1684" y="-1037" class="st14" width="556" height="392"/>
</svg>
